<svg xmlns="http://www.w3.org/2000/svg" viewBox="0 0 128 128" fill="none">
  <defs>
    <linearGradient id="g" x1="14" y1="10" x2="118" y2="116" gradientUnits="userSpaceOnUse">
      <stop stop-color="#BFF8FF"/>
      <stop offset="1" stop-color="#5EDCFF"/>
    </linearGradient>
  </defs>
  <path d="M63 8c2 14-5 21-12 31-7 9-13 19-9 33 4 14 16 26 33 26 20 0 34-16 34-35 0-15-9-28-21-37 2 8-1 16-8 21-4-9-8-15-17-24z" fill="url(#g)"/>
  <path d="M44 74c5 15 18 23 32 21 13-2 23-12 24-25-7 8-18 9-27 5-10-3-20-2-29-1z" fill="#D8FBFF" opacity=".8"/>
</svg>
